<svg width="512" height="512" viewBox="0 0 512 512" fill="none" xmlns="http://www.w3.org/2000/svg">
<path d="M107.879 68.895C107.875 69.4606 107.871 70.0262 107.867 70.609C107.771 84.3895 107.732 98.1693 107.752 111.95C107.76 118.615 107.75 125.278 107.697 131.943C107.647 138.375 107.646 144.806 107.678 151.239C107.682 153.692 107.668 156.145 107.637 158.598C107.595 162.038 107.616 165.471 107.652 168.911C107.625 169.924 107.599 170.936 107.571 171.98C107.675 176.392 107.851 178.885 111.083 182.06C113.615 183.85 116.162 185.404 118.879 186.895C119.861 187.54 120.844 188.186 121.855 188.851C122.656 189.353 123.457 189.854 124.281 190.372C125.2 190.951 126.119 191.53 127.066 192.126C127.994 192.71 128.923 193.294 129.879 193.895C143.961 202.85 157.986 211.887 171.936 221.047C177.641 224.791 183.37 228.492 189.133 232.147C193.924 235.197 198.683 238.295 203.442 241.395C204.405 242.02 205.369 242.645 206.362 243.29C212.624 247.369 218.785 251.569 224.879 255.895C222.455 258.433 220.169 260.518 217.149 262.305C216.437 262.732 215.726 263.158 214.993 263.597C214.234 264.046 213.474 264.495 212.692 264.958C206.606 268.614 200.575 272.328 194.629 276.208C188.237 280.372 181.819 284.492 175.379 288.583C159.508 298.669 143.648 308.775 127.879 319.02C127.097 319.528 126.315 320.036 125.51 320.559C124.765 321.044 124.021 321.529 123.254 322.028C122.181 322.726 122.181 322.726 121.086 323.439C119.512 324.477 117.948 325.53 116.391 326.593C115.583 327.144 114.774 327.695 113.942 328.262C113.211 328.766 112.48 329.27 111.727 329.789C109.879 330.895 109.879 330.895 107.879 330.895C107.879 367.195 107.879 403.495 107.879 440.895C102.395 437.848 97.4197 435.02 92.3166 431.52C85.6101 426.971 78.7639 422.668 71.8791 418.395C63.8751 413.428 55.9639 408.372 48.1955 403.043C45.554 401.332 42.9243 399.778 40.1719 398.261C38.9638 397.594 38.9638 397.594 37.7313 396.913C37.1201 396.577 36.5089 396.241 35.8791 395.895C35.5309 382.769 35.2648 369.645 35.102 356.516C35.0238 350.418 34.9179 344.324 34.7475 338.229C34.584 332.341 34.4948 326.456 34.456 320.566C34.4283 318.325 34.3744 316.083 34.2932 313.842C33.6985 296.746 33.6985 296.746 37.3343 291.992C40.838 288.793 44.742 286.668 49.0522 284.744C51.6651 283.53 53.9997 281.958 56.383 280.348C58.0683 279.279 59.7545 278.211 61.4416 277.145C62.3506 276.567 63.2595 275.989 64.196 275.394C69.1783 272.228 74.173 269.084 79.1799 265.958C80.1969 265.319 81.2139 264.681 82.2617 264.023C84.2288 262.788 86.1996 261.56 88.1743 260.337C89.054 259.784 89.9337 259.231 90.8401 258.661C91.6217 258.174 92.4034 257.687 93.2087 257.185C94.0356 256.546 94.0356 256.546 94.8791 255.895C94.8791 255.235 94.8791 254.575 94.8791 253.895C92.9595 252.361 92.9595 252.361 90.4455 250.805C89.495 250.191 88.5445 249.577 87.5652 248.945C86.5344 248.289 85.5036 247.633 84.4416 246.958C82.8684 245.945 82.8684 245.945 81.2634 244.912C79.1331 243.541 77.0009 242.173 74.8669 240.808C71.5837 238.706 68.3112 236.588 65.041 234.467C60.0639 231.237 55.0774 228.023 50.0901 224.809C49.3023 224.301 48.5145 223.793 47.7029 223.269C46.1843 222.289 44.6652 221.311 43.1452 220.333C37.9917 217.008 37.9917 217.008 36.8791 215.895C36.6664 212.774 36.5197 209.674 36.4165 206.549C36.381 205.566 36.3455 204.584 36.309 203.572C35.997 194.467 35.8075 185.359 35.6571 176.25C35.5538 170.13 35.4092 164.018 35.1645 157.903C34.9291 151.987 34.8039 146.079 34.7529 140.159C34.715 137.912 34.6389 135.665 34.5225 133.42C33.8183 119.207 33.8183 119.207 36.8791 112.895C42.1567 107.168 49.0519 103.765 55.9653 100.387C60.8204 97.9009 65.3228 94.8835 69.8791 91.895C71.6862 90.7415 73.4946 89.5902 75.3049 88.4419C76.2094 87.8663 77.1138 87.2908 78.0456 86.6978C81.0458 84.789 84.0464 82.881 87.0471 80.9731C88.0545 80.3325 89.0619 79.6918 90.0998 79.0317C92.0372 77.7997 93.9747 76.5679 95.9123 75.3364C96.7818 74.7834 97.6513 74.2304 98.5471 73.6606C99.313 73.1737 100.079 72.6868 100.868 72.1851C105.997 68.895 105.997 68.895 107.879 68.895Z" fill="#010101"/>
<path d="M353.481 215.037C355.833 215.879 357.725 216.808 359.82 218.161C360.559 218.632 361.298 219.104 362.059 219.59C363.238 220.36 363.238 220.36 364.441 221.145C365.268 221.676 366.094 222.207 366.945 222.753C369.595 224.459 372.238 226.176 374.879 227.895C376.648 229.043 378.418 230.19 380.188 231.337C383.607 233.555 387.023 235.779 390.438 238.005C396.939 242.24 403.49 246.393 410.059 250.524C420.93 257.367 431.725 264.317 442.483 271.336C444.782 272.832 447.085 274.322 449.391 275.809C450.117 276.278 450.843 276.746 451.591 277.229C452.905 278.076 454.219 278.922 455.534 279.767C456.795 280.58 458.043 281.416 459.276 282.272C461.364 283.574 463.307 284.565 465.533 285.575C470.541 288.056 475.621 290.69 477.755 296.127C479.168 302.826 478.879 309.657 478.73 316.466C478.73 318.674 478.735 320.883 478.745 323.091C478.749 327.707 478.701 332.319 478.615 336.935C478.507 342.839 478.515 348.736 478.56 354.641C478.584 359.197 478.554 363.752 478.507 368.307C478.489 370.483 478.487 372.659 478.5 374.835C478.551 391.766 478.551 391.766 474.479 396.951C471.679 399.022 469.051 400.482 465.879 401.895C464.395 402.808 462.92 403.738 461.465 404.696C460.064 405.537 458.66 406.375 457.254 407.208C451.381 410.745 445.561 414.34 439.816 418.083C438.44 418.979 437.064 419.874 435.688 420.77C434.945 421.254 434.202 421.737 433.437 422.235C428.667 425.33 423.886 428.407 419.1 431.477C417.955 432.213 416.81 432.949 415.666 433.686C414.061 434.72 412.455 435.751 410.848 436.782C409.914 437.382 408.98 437.983 408.018 438.601C405.879 439.895 405.879 439.895 404.879 439.895C404.892 439.351 404.905 438.806 404.919 438.245C405.237 424.938 405.44 411.634 405.524 398.324C405.568 391.887 405.648 385.454 405.815 379.019C405.974 372.799 406.035 366.586 406.029 360.364C406.043 357.999 406.093 355.634 406.179 353.271C406.958 340.664 406.958 340.664 401.916 329.639C397.135 325.612 391.871 322.725 386.245 320.05C383.095 318.513 380.278 316.676 377.371 314.723C375.499 313.53 373.627 312.338 371.754 311.145C359.736 303.473 347.803 295.676 335.878 287.86C331.466 284.97 327.049 282.086 322.629 279.208C321.845 278.696 321.061 278.184 320.253 277.656C315.806 274.762 311.331 271.922 306.824 269.122C305.813 268.49 304.801 267.858 303.759 267.206C301.797 265.983 299.831 264.768 297.858 263.562C296.534 262.735 296.534 262.735 295.184 261.891C294.4 261.408 293.616 260.926 292.808 260.428C290.7 258.753 289.876 257.369 288.879 254.895C291.419 253.27 293.959 251.644 296.499 250.018C298.735 248.587 300.97 247.156 303.206 245.725C309.029 241.997 314.855 238.271 320.684 234.551C321.776 233.854 322.867 233.157 323.992 232.438C326.061 231.117 328.131 229.797 330.201 228.477C331.163 227.862 332.126 227.247 333.117 226.614C334.058 226.016 334.998 225.418 335.967 224.801C338.038 223.446 340.079 222.045 342.099 220.614C343.682 219.5 343.682 219.5 345.297 218.364C346.722 217.334 346.722 217.334 348.177 216.284C350.879 214.895 350.879 214.895 353.481 215.037Z" fill="#010101"/>
<path d="M256.804 4.11037C259.237 5.03062 261.229 6.21849 263.414 7.63332C264.296 8.20002 265.178 8.76673 266.087 9.3506C267.029 9.96339 267.971 10.5762 268.941 11.2075C270.939 12.493 272.936 13.7782 274.934 15.063C276.436 16.0325 276.436 16.0325 277.968 17.0215C282.151 19.7137 286.357 22.3688 290.566 25.02C291.327 25.5006 292.088 25.9812 292.872 26.4763C296.945 29.0494 301.025 31.6133 305.109 34.1685C306.401 34.9784 306.401 34.9784 307.718 35.8047C309.361 36.8349 311.005 37.8628 312.651 38.8877C313.394 39.3542 314.137 39.8207 314.902 40.3013C315.551 40.7067 316.2 41.1121 316.869 41.5298C317.864 42.2056 317.864 42.2056 318.879 42.895C319.727 43.3903 320.576 43.8856 321.45 44.3959C325.024 48.0734 324.682 51.2829 324.748 56.2466C324.779 57.1935 324.811 58.1404 324.843 59.116C324.936 62.2508 324.99 65.3843 325.035 68.52C325.064 70.1304 325.064 70.1304 325.093 71.7733C325.192 77.4605 325.258 83.1471 325.3 88.835C325.349 94.6915 325.511 100.539 325.698 106.393C325.822 110.911 325.86 115.427 325.876 119.946C325.899 122.103 325.953 124.259 326.041 126.414C326.665 142.806 326.665 142.806 322.013 147.964C317.446 151.685 312.439 154.342 307.116 156.818C304.153 158.245 301.545 159.96 298.836 161.821C297.982 162.383 297.128 162.945 296.248 163.524C295.404 164.08 294.56 164.635 293.691 165.208C290.778 167.109 287.862 169.006 284.945 170.901C282.827 172.278 280.712 173.658 278.598 175.041C275.326 177.175 272.042 179.287 268.754 181.395C267.234 182.393 267.234 182.393 265.683 183.412C264.734 184.015 263.786 184.618 262.809 185.239C261.976 185.777 261.143 186.315 260.285 186.87C257.308 188.138 255.92 187.892 252.879 186.895C250.588 185.519 248.434 184.116 246.254 182.583C244.914 181.665 243.573 180.75 242.23 179.836C241.523 179.354 240.816 178.873 240.087 178.376C236.316 175.847 232.474 173.434 228.629 171.02C227.836 170.521 227.043 170.022 226.226 169.508C223.778 167.969 221.328 166.432 218.879 164.895C208.46 158.352 198.061 151.805 187.879 144.895C189.088 141.267 190.011 140.897 193.191 138.926C194.093 138.361 194.994 137.796 195.923 137.214C196.899 136.613 197.874 136.013 198.879 135.395C200.913 134.124 202.947 132.851 204.98 131.579C205.989 130.951 206.997 130.323 208.036 129.676C211.805 127.315 215.531 124.891 219.254 122.458C229.162 116.011 239.208 109.783 249.243 103.537C252.791 101.327 256.335 99.1115 259.879 96.895C256.961 93.7552 253.995 91.5638 250.328 89.356C249.245 88.6981 248.161 88.0402 247.044 87.3623C246.192 86.8498 246.192 86.8498 245.323 86.327C242.361 84.5448 239.411 82.7437 236.461 80.9419C235.882 80.5889 235.304 80.2358 234.708 79.8721C229.725 76.8217 224.858 73.6272 220.025 70.3462C215.645 67.38 211.188 64.5568 206.691 61.77C201.728 58.6847 196.777 55.5838 191.879 52.395C190.91 51.766 189.94 51.1369 188.941 50.4888C188.261 49.9629 187.58 49.4369 186.879 48.895C186.879 48.235 186.879 47.575 186.879 46.895C189.061 45.4493 191.235 44.129 193.504 42.8325C194.902 42.014 196.299 41.1937 197.695 40.3716C198.757 39.7475 198.757 39.7475 199.84 39.1109C203.323 37.0337 206.718 34.8247 210.12 32.6189C216.564 28.4436 223.045 24.3274 229.533 20.2222C234.033 17.369 238.509 14.491 242.93 11.5161C243.705 10.9984 244.481 10.4807 245.28 9.94728C246.727 8.97769 248.168 7.99802 249.601 7.00685C254.354 3.83635 254.354 3.83635 256.804 4.11037Z" fill="#010101"/>
<path d="M257.401 324.528C259.929 325.921 262.403 327.34 264.846 328.879C265.799 329.478 266.753 330.076 267.736 330.693C268.753 331.337 269.77 331.981 270.818 332.645C271.879 333.313 272.94 333.981 274.034 334.67C277.319 336.74 280.6 338.817 283.881 340.895C285.827 342.123 287.774 343.351 289.721 344.579C295.123 347.993 300.505 351.439 305.881 354.895C306.773 355.465 307.665 356.034 308.584 356.622C311.149 358.264 313.704 359.921 316.256 361.582C317.417 362.322 317.417 362.322 318.601 363.077C320.415 364.271 322.157 365.574 323.881 366.895C323.881 367.885 323.881 368.875 323.881 369.895C321.52 371.671 319.201 373.226 316.693 374.77C315.558 375.486 315.558 375.486 314.4 376.217C311.901 377.789 309.392 379.344 306.881 380.895C305.598 381.69 305.598 381.69 304.288 382.501C300.759 384.688 297.229 386.873 293.694 389.05C287.413 392.924 281.196 396.884 275.02 400.922C271.466 403.241 267.892 405.516 264.271 407.731C263.151 408.418 263.151 408.418 262.009 409.119C260.578 409.993 259.143 410.862 257.704 411.724C256.063 412.728 254.466 413.805 252.881 414.895C252.881 415.555 252.881 416.215 252.881 416.895C255.434 418.588 257.991 420.161 260.631 421.707C267.386 425.747 274.048 429.892 280.631 434.207C288.77 439.538 296.961 444.781 305.196 449.963C307.769 451.59 310.329 453.235 312.881 454.895C313.828 455.51 314.775 456.125 315.751 456.759C316.668 457.374 317.585 457.988 318.529 458.622C319.364 459.177 320.198 459.732 321.058 460.304C321.66 460.829 322.261 461.354 322.881 461.895C322.881 462.885 322.881 463.875 322.881 464.895C320.765 466.443 318.699 467.763 316.443 469.082C314.973 469.971 313.505 470.862 312.037 471.754C311.22 472.249 310.402 472.743 309.56 473.252C304.474 476.37 299.463 479.609 294.443 482.832C293.37 483.52 292.297 484.208 291.192 484.917C285.634 488.481 280.078 492.049 274.532 495.631C273.127 496.538 271.721 497.443 270.314 498.347C266 501.126 261.807 504.03 257.74 507.164C255.881 507.895 255.881 507.895 253.6 507.147C250.729 505.825 248.176 504.301 245.521 502.586C244.497 501.927 243.472 501.269 242.417 500.59C240.79 499.534 240.79 499.534 239.131 498.457C237.997 497.725 236.862 496.994 235.727 496.263C233.472 494.808 231.219 493.351 228.967 491.893C225.736 489.801 222.502 487.717 219.256 485.65C217.926 484.786 216.608 483.902 215.311 482.989C211.497 480.348 207.983 478.505 203.578 477.028C196.804 474.35 191.742 471.217 187.881 464.895C183.589 451.713 184.767 436.459 185.033 422.793C185.142 417.098 185.05 411.426 184.907 405.733C184.165 371.383 184.165 371.383 190.129 363.41C195.34 358.243 201.146 355.388 208.013 352.989C212.506 351.275 216.294 348.642 220.256 345.957C221.773 345.003 223.294 344.053 224.818 343.11C228.157 341.011 231.454 338.859 234.732 336.667C237.005 335.148 239.287 333.644 241.57 332.14C243.228 331.038 244.874 329.918 246.519 328.798C248.04 327.798 248.04 327.798 249.592 326.778C250.492 326.173 251.392 325.569 252.32 324.946C254.881 323.895 254.881 323.895 257.401 324.528Z" fill="#010101"/>
<path d="M404.878 67.895C406.772 68.9944 408.666 70.095 410.559 71.196C412.141 72.1152 412.141 72.1152 413.755 73.0529C418.259 75.7095 422.666 78.507 427.066 81.3325C427.99 81.9231 428.914 82.5136 429.866 83.1221C432.872 85.0436 435.875 86.9688 438.878 88.895C442.154 90.9958 445.429 93.0964 448.706 95.196C450.792 96.5337 452.878 97.8727 454.963 99.2131C455.937 99.8378 456.91 100.462 457.913 101.106C458.818 101.717 459.723 102.328 460.656 102.958C463.799 104.995 463.799 104.995 467.26 106.08C471.335 107.74 474.376 109.189 476.878 112.895C479.379 121.361 478.383 130.774 478.148 139.489C478.123 142.123 478.105 144.757 478.092 147.391C478.052 153.604 477.945 159.815 477.814 166.026C477.669 173.102 477.598 180.178 477.532 187.255C477.397 201.803 477.168 216.349 476.878 230.895C473.577 229.608 470.678 228.265 467.718 226.313C466.935 225.8 466.151 225.287 465.344 224.758C464.51 224.205 463.675 223.652 462.816 223.083C461.016 221.901 459.217 220.72 457.417 219.54C456.498 218.934 455.58 218.329 454.633 217.706C450.33 214.877 446.01 212.074 441.691 209.27C440.033 208.193 438.376 207.116 436.718 206.04C435.511 205.256 435.511 205.256 434.28 204.456C431.917 202.92 429.556 201.382 427.195 199.844C425.714 198.882 424.234 197.92 422.753 196.958C421.778 196.321 421.778 196.321 420.784 195.672C419.837 195.057 419.837 195.057 418.87 194.43C418.279 194.037 417.688 193.643 417.078 193.237C414.872 191.831 414.872 191.831 412.341 190.74C405.434 187.383 405.434 187.383 403.971 183.466C403.644 180.397 403.64 177.468 403.743 174.382C403.741 173.23 403.74 172.078 403.739 170.892C403.745 167.091 403.823 163.296 403.902 159.497C403.92 156.86 403.935 154.223 403.945 151.586C403.976 145.359 404.058 139.134 404.158 132.908C404.27 125.817 404.325 118.727 404.375 111.636C404.479 97.0545 404.655 82.4748 404.878 67.895Z" fill="#010101"/>
</svg>
